<svg width="62" height="62" viewBox="0 0 62 62" fill="none" xmlns="http://www.w3.org/2000/svg">
<g clip-path="url(#clip0_1_369)">
<g clip-path="url(#clip1_1_369)">
<path d="M8.71875 61.9922C8.97568 61.9922 9.22208 61.8902 9.40376 61.7085C9.58544 61.5268 9.6875 61.2804 9.6875 61.0235V50.3227C9.6875 48.205 10.8171 46.2094 12.6344 45.1205L20.2178 40.5693L24.3796 45.7715C24.4649 45.8778 24.5716 45.965 24.6927 46.0274C24.8139 46.0898 24.9468 46.126 25.0829 46.1338L25.1371 46.1357C25.3929 46.1357 25.6409 46.035 25.823 45.8529L27.6869 43.989V45.1689C27.6869 45.4258 27.7889 45.6722 27.9706 45.8539C28.1523 46.0356 28.3987 46.1377 28.6556 46.1377H28.7467L27.1308 60.9208C27.1147 61.0484 27.1242 61.178 27.1587 61.3019C27.1932 61.4258 27.252 61.5416 27.3317 61.6425C27.4114 61.7435 27.5105 61.8275 27.623 61.8898C27.7356 61.9521 27.8594 61.9913 27.9873 62.0052C28.1152 62.0191 28.2445 62.0074 28.3678 61.9707C28.4911 61.9341 28.6059 61.8733 28.7055 61.7918C28.805 61.7103 28.8873 61.6099 28.9476 61.4962C29.0079 61.3826 29.045 61.2581 29.0567 61.13L30.6958 46.1377H31.3042L32.9433 61.13C32.9711 61.3857 33.0992 61.6198 33.2996 61.781C33.5 61.9421 33.7562 62.0171 34.0118 61.9893C34.2675 61.9616 34.5016 61.8334 34.6628 61.633C34.8239 61.4326 34.8989 61.1764 34.8711 60.9208L33.2552 46.1377H33.3463C33.6032 46.1377 33.8496 46.0356 34.0313 45.8539C34.213 45.6722 34.3151 45.4258 34.3151 45.1689V43.989L36.1789 45.8529C36.2691 45.9428 36.376 46.014 36.4937 46.0626C36.6114 46.1111 36.7375 46.136 36.8648 46.1357L36.9191 46.1338C37.0551 46.126 37.1881 46.0898 37.3092 46.0274C37.4304 45.965 37.5371 45.8778 37.6224 45.7715L41.7841 40.5693L49.3694 45.1205C50.2649 45.6624 51.006 46.4256 51.5214 47.3366C52.0368 48.2477 52.3092 49.2759 52.3125 50.3227V61.0235C52.3125 61.2804 52.4146 61.5268 52.5962 61.7085C52.7779 61.8902 53.0243 61.9922 53.2812 61.9922C53.5382 61.9922 53.7846 61.8902 53.9663 61.7085C54.1479 61.5268 54.25 61.2804 54.25 61.0235V50.3227C54.25 47.5269 52.7601 44.8977 50.3634 43.46L42.1755 38.5485L39.1065 35.1385C38.9787 35.0019 38.8134 34.9063 38.6314 34.8635C38.4493 34.8208 38.2587 34.8328 38.0835 34.8982V31.093C39.4932 30.0108 40.6354 28.6192 41.4218 27.0255C42.2082 25.4318 42.6179 23.6787 42.6192 21.9015V17.4995L44.4889 8.8466C44.63 8.08159 44.6164 7.29606 44.449 6.53636C44.2817 5.77667 43.9638 5.05818 43.5143 4.42329C43.0686 3.78564 42.4996 3.2437 41.8411 2.82942C41.1826 2.41513 40.4478 2.13689 39.68 2.0111L28.1364 0.087167C27.31 -0.0509044 26.4634 -0.0071571 25.6557 0.215362C24.8479 0.437881 24.0984 0.833821 23.4592 1.3756C22.3687 2.3014 21.6632 3.60114 21.4811 5.02004C20.3379 5.23317 19.3033 5.84348 18.5574 6.76573C18.09 7.34473 17.7594 8.02184 17.5903 8.7465C17.4212 9.47116 17.418 10.2247 17.5809 10.9507L19.3692 17.4801V21.8995C19.3692 25.6409 21.1517 28.9656 23.9049 31.093V34.8963C23.7307 34.834 23.5421 34.8237 23.3622 34.8667C23.1823 34.9097 23.0187 35.0041 22.8916 35.1385L19.8245 38.5465L11.6366 43.46C10.454 44.1738 9.47511 45.1802 8.79436 46.3822C8.11362 47.5842 7.75394 48.9413 7.75 50.3227V61.0235C7.75 61.2804 7.85206 61.5268 8.03374 61.7085C8.21542 61.8902 8.46182 61.9922 8.71875 61.9922ZM32.3756 42.2355V44.1982H29.6244V42.2355C29.6244 42.1813 29.6011 42.1329 29.5934 42.0805L31 40.6739L32.4086 42.0825C32.3989 42.1329 32.3756 42.1813 32.3756 42.2355V42.2355ZM40.2845 39.3409L36.7834 43.7177L32.6546 39.5889L38.1513 36.9714L40.2845 39.3409ZM20.0628 7.98442C20.3427 7.63684 20.6971 7.35661 21.0999 7.16445C21.5027 6.97228 21.9435 6.8731 22.3897 6.87423C22.9245 6.87423 23.3585 6.31042 23.3585 5.77567C23.3575 5.27252 23.4558 4.77413 23.6478 4.30906C23.8398 3.844 24.1218 3.42142 24.4774 3.06555C24.8331 2.70968 25.2556 2.42753 25.7205 2.23528C26.1855 2.04303 26.6839 1.94446 27.187 1.94523C27.3986 1.94539 27.6099 1.96289 27.8186 1.99754L39.3622 3.92148C40.4085 4.09585 41.3191 4.66935 41.9294 5.53542C42.5398 6.40342 42.7723 7.45548 42.5882 8.46685L41.137 15.1803L39.308 12.9076V10.8015C39.308 10.5446 39.2059 10.2982 39.0243 10.1165C38.8426 9.93486 38.5962 9.83279 38.3393 9.83279H23.6491C23.3922 9.83279 23.1458 9.93486 22.9641 10.1165C22.7824 10.2982 22.6804 10.5446 22.6804 10.8015V12.9095L20.7758 15.283L19.4622 10.4915C19.2743 9.60417 19.4932 8.68967 20.0628 7.98442V7.98442ZM21.3067 21.8995V17.7184L24.4067 13.857C24.5444 13.6848 24.6196 13.471 24.6198 13.2505V11.7703H37.3724V13.2505C37.3724 13.4711 37.4476 13.685 37.5856 13.857L40.6836 17.7029V21.8976C40.6836 27.2393 36.3378 31.5851 30.9961 31.5851C25.6544 31.5851 21.3067 27.2412 21.3067 21.8995V21.8995ZM30.9942 33.5245C32.8464 33.5245 34.5921 33.0789 36.146 32.3059V35.7798L31 38.2307L25.8424 35.774V32.3039C27.3982 33.077 29.1439 33.5245 30.9942 33.5245V33.5245ZM23.8487 36.9714L29.3454 39.5889L25.2166 43.7177L21.7155 39.3409L23.8487 36.9714V36.9714Z" fill="#EE2A54"/>
<path d="M18.4062 61.9923C18.6632 61.9923 18.9096 61.8902 19.0913 61.7085C19.2729 61.5268 19.375 61.2804 19.375 61.0235V56.4859C19.377 54.4879 18.6296 52.5618 17.2806 51.088L15.8139 49.4818C15.728 49.3878 15.6245 49.3116 15.5091 49.2576C15.3938 49.2036 15.269 49.1729 15.1418 49.1671C15.0146 49.1614 14.8875 49.1807 14.7678 49.2241C14.6481 49.2674 14.5381 49.334 14.4441 49.4198C14.35 49.5057 14.2739 49.6092 14.2199 49.7246C14.1659 49.8399 14.1351 49.9647 14.1294 50.0919C14.1236 50.2191 14.143 50.3462 14.1863 50.4659C14.2297 50.5856 14.2962 50.6956 14.3821 50.7896L15.8487 52.3958C16.8719 53.5121 17.4389 54.9717 17.4375 56.4859V61.0235C17.4375 61.2804 17.5396 61.5268 17.7212 61.7085C17.9029 61.8902 18.1493 61.9923 18.4062 61.9923ZM46.1861 49.4818L44.7194 51.09C43.3705 52.563 42.6231 54.4885 42.625 56.4859V61.0235C42.625 61.2804 42.7271 61.5268 42.9087 61.7085C43.0904 61.8902 43.3368 61.9923 43.5938 61.9923C43.8507 61.9923 44.0971 61.8902 44.2788 61.7085C44.4604 61.5268 44.5625 61.2804 44.5625 61.0235V56.4859C44.5625 54.9688 45.1263 53.5157 46.1493 52.3958L47.616 50.7896C47.7019 50.6958 47.7684 50.5859 47.8118 50.4663C47.8552 50.3467 47.8747 50.2197 47.869 50.0926C47.8633 49.9655 47.8327 49.8407 47.7788 49.7255C47.7249 49.6102 47.6489 49.5067 47.555 49.4208C47.4611 49.3349 47.3512 49.2684 47.2316 49.225C47.112 49.1816 46.985 49.1621 46.8579 49.1678C46.7308 49.1735 46.6061 49.2041 46.4908 49.258C46.3755 49.3119 46.272 49.3879 46.1861 49.4818Z" fill="#EE2A54"/>
</g>
</g>
<defs>
<clipPath id="clip0_1_369">
<rect width="62" height="62" fill="white"/>
</clipPath>
<clipPath id="clip1_1_369">
<rect width="62" height="62" fill="white"/>
</clipPath>
</defs>
</svg>
