
<svg xmlns="http://www.w3.org/2000/svg" xmlns:svgjs="http://svgjs.com/svgjs" xmlns:xlink="http://www.w3.org/1999/xlink" width="288" height="288"><svg xmlns="http://www.w3.org/2000/svg" width="288" height="288" viewBox="0 0 60 60"><path fill="#ee2a54" d="M40.53 9.593c-3.553-3.131-7.993-4.538-12.505-3.968-7.878 1-14.25 8.248-15.15 17.233-.452 4.503.403 8.89 2.47 12.686 1.724 3.165 1.525 7.356-.486 10.455a10.695 10.695 0 0 0-1.975 6.209V54a.5.5 0 0 0 .5.5h32.763a.5.5 0 0 0 .5-.5v-1.792c0-2.265-.706-4.367-1.905-6.104-.006-.013-.007-.027-.015-.04-1.901-2.882-1.93-7.11-.073-10.52 1.693-3.107 2.588-6.693 2.588-10.368 0-6.145-2.447-11.824-6.712-15.583zM45.647 53.5H13.884v-1.292c0-2.02.613-3.94 1.739-5.561.01-.013.025-.018.034-.032.013-.02.022-.042.035-.062a9.846 9.846 0 0 1 1.054-1.26 9.797 9.797 0 0 1 6.934-2.863c1.3 0 2.36-1.067 2.36-2.377v-4.374c1.174.457 2.426.714 3.73.714 1.3 0 2.55-.255 3.722-.71v4.37a2.38 2.38 0 0 0 2.377 2.377c5.391 0 9.778 4.386 9.778 9.778V53.5zM29.77 35.393c-5.995 0-10.876-5.793-10.903-12.926.392-1.542 1.397-1.782 3.793-2.215 1.067-.192 2.395-.432 3.901-.9 2.373-.736 3.44-2.794 3.9-4.177.844 1.397 2.557 3.647 5.318 4.744 1.108.44 2.004.742 2.723.985 1.926.65 2.17.777 2.17 1.502 0 7.161-4.89 12.987-10.902 12.987zm14.006-.327c-1.522 2.794-1.887 5.994-1.12 8.78a10.724 10.724 0 0 0-6.787-2.416c-.76 0-1.377-.618-1.377-1.377v-4.814c4.22-2.152 7.18-7.092 7.18-12.833 0-1.486-.952-1.807-2.85-2.449-.708-.24-1.59-.537-2.674-.968-3.687-1.464-5.38-5.364-5.397-5.403a.5.5 0 0 0-.956.13c-.005.038-.527 3.75-3.53 4.681-1.448.45-2.688.673-3.783.87-2.352.425-4.051.732-4.602 3.022a.505.505 0 0 0-.013.117c0 5.737 2.957 10.673 7.172 12.828v4.819a1.37 1.37 0 0 1-1.36 1.377c-2.45 0-4.781.821-6.69 2.325.882-2.879.647-6.095-.765-8.69-1.972-3.619-2.786-7.805-2.354-12.107.855-8.526 6.86-15.4 14.28-16.34 4.222-.537 8.385.787 11.719 3.725 4.05 3.57 6.373 8.975 6.373 14.833 0 3.509-.853 6.928-2.466 9.89z" class="color000 svgShape"/></svg></svg>